<svg xmlns="http://www.w3.org/2000/svg" width="390" height="844" viewBox="0 0 390 844">
  <rect width="390" height="844" fill="#f4f7f6"/>
  <rect width="390" height="120" fill="#0d7a5f"/>
  <text x="195" y="55" text-anchor="middle" fill="white" font-family="Segoe UI,sans-serif" font-size="22" font-weight="bold">Kilomètre-Santé</text>
  <text x="195" y="85" text-anchor="middle" fill="#cce8df" font-family="Segoe UI,sans-serif" font-size="12">Pharmacies de garde  Pointe-Noire</text>
  <rect x="16" y="130" width="358" height="48" rx="12" fill="white" stroke="#d1ddd8" stroke-width="2"/>
  <text x="32" y="160" fill="#5c6f68" font-family="Segoe UI,sans-serif" font-size="14">Rechercher par nom ou quartier&</text>
  <rect x="16" y="190" width="200" height="40" rx="10" fill="white" stroke="#d1ddd8"/>
  <rect x="224" y="190" width="150" height="40" rx="10" fill="#0d7a5f"/>
  <text x="299" y="215" text-anchor="middle" fill="white" font-size="12" font-family="Segoe UI,sans-serif">De garde</text>
  <text x="24" y="250" fill="#5c6f68" font-size="11" font-family="Segoe UI,sans-serif">Vos favoris</text>
  <rect x="16" y="265" width="358" height="200" rx="12" fill="white" filter="url(#shadow)"/>
  <rect x="16" y="265" width="358" height="90" rx="12" fill="#c5ddd4"/>
  <text x="28" y="375" fill="#1a2e28" font-size="15" font-weight="bold" font-family="Segoe UI,sans-serif">Pharmacie de la Poste</text>
  <rect x="28" y="385" width="72" height="22" rx="11" fill="#e6f7ef"/>
  <text x="64" y="400" text-anchor="middle" fill="#22a06b" font-size="10" font-weight="bold" font-family="Segoe UI,sans-serif">DE GARDE</text>
  <text x="28" y="425" fill="#5c6f68" font-size="12" font-family="Segoe UI,sans-serif">Centre-ville · 1er Arrondissement</text>
  <rect x="16" y="480" width="358" height="200" rx="12" fill="white"/>
  <rect x="16" y="480" width="358" height="90" rx="12" fill="#9bb8ad"/>
  <text x="28" y="590" fill="#1a2e28" font-size="15" font-weight="bold" font-family="Segoe UI,sans-serif">Pharmacie Mavré</text>
  <rect x="28" y="600" width="60" height="22" rx="11" fill="#eef0f2"/>
  <text x="58" y="615" text-anchor="middle" fill="#6b7280" font-size="10" font-weight="bold" font-family="Segoe UI,sans-serif">FERMÉE</text>
  <defs>
    <filter id="shadow" x="-10%" y="-10%" width="120%" height="120%">
      <feDropShadow dx="0" dy="2" stdDeviation="4" flood-opacity="0.1"/>
    </filter>
  </defs>
  <text x="195" y="820" text-anchor="middle" fill="#5c6f68" font-size="10" font-family="Segoe UI,sans-serif">Maquette mobile 390×844  Kilomètre-Santé</text>
</svg>
